<svg width="27" height="27" viewBox="0 0 27 27" fill="none" xmlns="http://www.w3.org/2000/svg">
<g filter="url(#filter0_d_70_36)">
<path d="M22.1804 20.1228L20.9025 5.89192C20.8677 5.50329 20.5419 5.2056 20.1518 5.2056H17.5166V4.01709C17.5166 1.80207 15.7146 0 13.4997 0C11.2849 0 9.4831 1.80207 9.4831 4.01709V5.2056H6.84608C6.45594 5.2056 6.13022 5.50329 6.09535 5.89192L4.81246 20.1788C4.79357 20.3897 4.86412 20.5986 5.00693 20.7548C5.14974 20.911 5.35165 20.9999 5.5632 20.9999H21.4348C21.4354 20.9999 21.4362 20.9999 21.4368 20.9999C21.8532 20.9999 22.1905 20.6624 22.1905 20.2461C22.1904 20.2042 22.187 20.1629 22.1804 20.1228ZM10.9906 4.01709C10.9906 2.6333 12.1162 1.5075 13.4998 1.5075C14.8835 1.5075 16.0092 2.6333 16.0092 4.01709V5.2056H10.9906V4.01709ZM6.3877 19.4925L7.53521 6.71311H9.4831V8.06101C9.4831 8.47728 9.82048 8.81476 10.2369 8.81476C10.6532 8.81476 10.9906 8.47728 10.9906 8.06101V6.71311H16.0092V8.06101C16.0092 8.47728 16.3466 8.81476 16.7629 8.81476C17.1793 8.81476 17.5167 8.47728 17.5167 8.06101V6.71311H19.4628L20.6103 19.4925H6.3877Z" fill="white"/>
</g>
<defs>
<filter id="filter0_d_70_36" x="-1" y="0" width="29" height="29" filterUnits="userSpaceOnUse" color-interpolation-filters="sRGB">
<feFlood flood-opacity="0" result="BackgroundImageFix"/>
<feColorMatrix in="SourceAlpha" type="matrix" values="0 0 0 0 0 0 0 0 0 0 0 0 0 0 0 0 0 0 127 0" result="hardAlpha"/>
<feOffset dy="4"/>
<feGaussianBlur stdDeviation="2"/>
<feColorMatrix type="matrix" values="0 0 0 0 0 0 0 0 0 0 0 0 0 0 0 0 0 0 0.25 0"/>
<feBlend mode="normal" in2="BackgroundImageFix" result="effect1_dropShadow_70_36"/>
<feBlend mode="normal" in="SourceGraphic" in2="effect1_dropShadow_70_36" result="shape"/>
</filter>
</defs>
</svg>
